<svg xmlns="http://www.w3.org/2000/svg" style="display: none;">
    <symbol id="arrow-down" viewBox="0 0 20 20">
        <path d="M14.59 6.58984L10 11.1698L5.41 6.58984L4 7.99984L10 13.9998L16 7.99984L14.59 6.58984Z" fill="currentColor"/>
    </symbol>
    <symbol id="arrow-left" viewBox="0 0 20 20">
        <path d="M13.41 5.41L12 4L6 10L12 16L13.41 14.59L8.83 10L13.41 5.41Z" fill="currentColor"/>
    </symbol>
    <symbol id="arrow-right" viewBox="0 0 20 20">
        <path d="M6.58997 5.41L11.17 10L6.58997 14.59L7.99997 16L14 10L7.99997 4L6.58997 5.41Z" fill="currentColor"/>
    </symbol>
    <symbol id="arrow-up" viewBox="0 0 20 20">
        <path d="M5.41 13.41L10 8.83L14.59 13.41L16 12L10 6L4 12L5.41 13.41Z" fill="currentColor"/>
    </symbol>
    <symbol id="calendar" viewBox="0 0 20 20">
        <path d="M15.8333 2.5H14.1667V1.66667H13.3333V2.5H6.66667V1.66667H5.83333V2.5H4.16667C3.25 2.5 2.5 3.25 2.5 4.16667V15.8333C2.5 16.75 3.25 17.5 4.16667 17.5H15.8333C16.75 17.5 17.5 16.75 17.5 15.8333V4.16667C17.5 3.25 16.75 2.5 15.8333 2.5ZM16.6667 15.8333C16.6667 16.2917 16.2917 16.6667 15.8333 16.6667H4.16667C3.70833 16.6667 3.33333 16.2917 3.33333 15.8333V6.66667H16.6667V15.8333ZM16.6667 5.83333H3.33333V4.16667C3.33333 3.70833 3.70833 3.33333 4.16667 3.33333H5.83333V4.16667H6.66667V3.33333H13.3333V4.16667H14.1667V3.33333H15.8333C16.2917 3.33333 16.6667 3.70833 16.6667 4.16667V5.83333Z" fill="currentColor"/>
        <path d="M5 8.33301H6.66667V9.99967H5V8.33301Z" fill="currentColor"/>
        <path d="M8.33331 8.33301H9.99998V9.99967H8.33331V8.33301Z" fill="currentColor"/>
        <path d="M11.6667 8.33301H13.3333V9.99967H11.6667V8.33301Z" fill="currentColor"/>
        <path d="M5 11.667H6.66667V13.3337H5V11.667Z" fill="currentColor"/>
        <path d="M8.33331 11.667H9.99998V13.3337H8.33331V11.667Z" fill="currentColor"/>
        <path d="M11.6667 11.667H13.3333V13.3337H11.6667V11.667Z" fill="currentColor"/>
    </symbol>
    <symbol id="check" viewBox="0 0 20 20">
        <path d="M7.49999 14.775L3.72499 10.9833L4.94166 9.76666L7.49999 12.3333L15.0583 4.77499L16.275 5.99999L7.49999 14.775Z" fill="currentColor"/>
    </symbol>
    <symbol id="check2" viewBox="0 0 20 20">
        <path d="M10 2.5C5.8625 2.5 2.5 5.8625 2.5 10C2.5 14.1375 5.8625 17.5 10 17.5C14.1375 17.5 17.5 14.1375 17.5 10C17.5 5.8625 14.1375 2.5 10 2.5ZM10 16.6667C6.325 16.6667 3.33333 13.675 3.33333 10C3.33333 6.325 6.325 3.33333 10 3.33333C13.675 3.33333 16.6667 6.325 16.6667 10C16.6667 13.675 13.675 16.6667 10 16.6667ZM13.5833 6.95833L7.91667 12.625L6.41667 11.1333L5.83333 11.7167L7.91667 13.8L14.1667 7.54167L13.5833 6.95833Z" fill="currentColor"/>
    </symbol>
    <symbol id="facebook-logo" viewBox="0 0 20 20">
        <path d="M17.5 10C17.5 5.8625 14.1375 2.5 10 2.5C5.8625 2.5 2.5 5.8625 2.5 10C2.5 13.7875 5.2875 16.9125 8.90625 17.4375V12.1875H7.03125V10H8.90625V8.3125C8.90625 6.375 9.94375 5.40625 11.7125 5.40625C12.5625 5.40625 13.4125 5.55625 13.4125 5.55625V7.375H12.4312C11.45 7.375 11.0938 8 11.0938 8.625V10H13.3375L13.0188 12.1875H11.0938V17.4375C14.7125 16.9125 17.5 13.7875 17.5 10Z" fill="currentColor"/>
    </symbol>
    <symbol id="linkedin-logo" viewBox="0 0 20 20">
        <path d="M15.8333 2.5H4.16667C3.25 2.5 2.5 3.25 2.5 4.16667V15.8333C2.5 16.75 3.25 17.5 4.16667 17.5H15.8333C16.75 17.5 17.5 16.75 17.5 15.8333V4.16667C17.5 3.25 16.75 2.5 15.8333 2.5ZM6.66667 15H4.58333V7.91667H6.66667V15ZM5.625 6.48333C4.90833 6.48333 4.33333 5.9 4.33333 5.19167C4.33333 4.48333 4.90833 3.9 5.625 3.9C6.33333 3.9 6.91667 4.48333 6.91667 5.19167C6.91667 5.9 6.33333 6.48333 5.625 6.48333ZM15 15H12.9167V11.25C12.9167 10.4167 12.9 9.33333 11.7417 9.33333C10.5667 9.33333 10.375 10.25 10.375 11.2V15H8.33333V7.91667H10.2917V8.83333H10.3167C10.625 8.29167 11.325 7.71667 12.3667 7.71667C14.45 7.71667 15 9.19167 15 11.0833V15Z" fill="currentColor"/>
    </symbol>
    <symbol id="twitter-logo" viewBox="0 0 20 20">
        <path d="M17.5 4.75C16.9383 5.01897 16.3383 5.20684 15.71 5.3C16.3598 4.90969 16.8435 4.30303 17.07 3.59167C16.4667 3.95 15.8 4.2 15.09 4.33333C14.5175 3.73022 13.7122 3.3439 12.8493 3.34434C11.2244 3.34434 9.90733 4.65388 9.90733 6.26684C9.90733 6.53125 9.93433 6.7875 10.0025 7.02917C7.54433 6.89611 5.38975 5.74353 3.96733 3.9375C3.67506 4.43243 3.51899 5.00482 3.52 5.5875C3.52 6.72667 4.09733 7.73139 4.975 8.32306C4.47097 8.30625 3.97856 8.17098 3.54167 7.9275V7.96333C3.54167 9.39556 4.54783 10.5839 5.89283 10.8961C5.61211 10.9713 5.3204 11.0098 5.02733 11.0097C4.81589 11.01 4.60478 10.9898 4.39733 10.9492C4.8275 12.1178 5.93933 12.9505 7.24667 12.9764C6.19843 13.7596 4.9126 14.1987 3.58 14.195C3.31673 14.1953 3.05365 14.18 2.79167 14.1492C4.14668 14.9851 5.7312 15.441 7.35167 15.4375C12.8433 15.4375 15.8483 11.0622 15.8483 7.26806C15.8483 7.13139 15.8483 6.99389 15.8383 6.85722C16.4394 6.41012 16.9705 5.85999 17.5 5.2375V4.75Z" fill="currentColor"/>
    </symbol>
</svg>